<svg id="Layer_1" data-name="Layer 1" xmlns="http://www.w3.org/2000/svg" fill="#FFFFFF" viewBox="0 0 122.88 101.22">
<defs>
    <style>.cls-1{fill:#none;stroke:#FFF;stroke-linecap:round;stroke-linejoin:round;stroke-width:8.23px;}
    </style>
</defs>
<title>deep-water</title>
<path d="M5.06,33.6a21.07,21.07,0,0,1,8.56,3,58.29,58.29,0,0,1,7,5.18C33.11,52,41.33,46.6,49.84,41c10.42-6.89,21.24-14,39.26.74,3.09,2.53,6.16,5,10,5.63s8.89-.71,16.07-5.74a4.83,4.83,0,0,1,3.65-.81l.1,0a4.89,4.89,0,0,1,3,1.82l.23.33A4.89,4.89,0,0,1,121,49.51l-.35.24c-20.07,14-28.81,6.85-37.71-.44l-.13-.11c-12.4-10.09-20.6-4.68-29.08.93-10.41,6.88-21.22,14-39.22-.7l-.06,0c-3.09-2.53-6.17-5.05-10-5.62A4.61,4.61,0,0,1,.31,40.57l0-.13A5.91,5.91,0,0,1,.4,36.53a4.48,4.48,0,0,1,4.28-3l.38,0ZM4.89.53a21.15,21.15,0,0,1,8.73,3,59.39,59.39,0,0,1,7,5.18C33.11,19,41.33,13.55,49.84,7.93c10.42-6.9,21.24-14,39.26.73,3.09,2.54,6.16,5.05,10,5.63s8.89-.7,16.07-5.73a4.88,4.88,0,0,1,3.65-.82l.1,0a4.9,4.9,0,0,1,3,1.83l.23.33a4.9,4.9,0,0,1,.71,3.49A5,5,0,0,1,121,16.46l-.35.23c-20.07,14-28.81,6.85-37.71-.43l-.13-.11c-12.4-10.1-20.6-4.68-29.08.92-10.41,6.89-21.22,14-39.22-.69l-.06-.05c-3.1-2.54-6.18-5.06-10-5.63l-.18,0A4.45,4.45,0,0,1,.71,7.43,6.24,6.24,0,0,1,.47,5.21,6.57,6.57,0,0,1,1,3.09,4,4,0,0,1,4.68.52Z"/>
<!--path d="M84.42,85.42c-4.53,4.94-8.19,10-12.91,14.36a4.56,4.56,0,0,1-6.7,0C61.38,97,55.53,89.28,52,85.42c-3.63-3.7.8-9.62,5.34-7.26a.88.88,0,0,1,.28.22L68.27,90.12C71.75,86.54,74.52,82.37,78,79c4.22-4.22,10.67,2.18,6.47,6.45Z"/-->
<path d="M84.42,85.42c-4.53,4.94-8.19,10-12.91,14.36a4.56,4.56,0,0,1-6.7,0C61.38,97,55.53,89.28,52,85.42c-3.63-3.7.8-9.62,5.34-7.26a.88.88,0,0,1,.28.22L68.27,90.12C71.75,86.54,74.52,82.37,78,79c4.22-4.22,10.67,2.18,6.47,6.45Z"/>
<line class="cls-1" x1="68.24" y1="95.6" x2="68.24" y2="61.24"/>
<line class="cls-1" x1="68.24" y1="95.6" x2="68.24" y2="61.24"/>
</svg>